<?xml version="1.0" encoding="utf-8"?>
<!-- Generator: Adobe Illustrator 18.1.1, SVG Export Plug-In . SVG Version: 6.00 Build 0)  -->
<svg version="1.1" id="Layer_1" xmlns="http://www.w3.org/2000/svg" xmlns:xlink="http://www.w3.org/1999/xlink" x="0px" y="0px"
	 viewBox="0 0 128 128" enable-background="new 0 0 128 128" xml:space="preserve">
<g>
	<path fill-rule="evenodd" clip-rule="evenodd" fill="#191717" d="M64.6,5.4c-33.3,0-60.4,27-60.4,60.4c0,26.7,17.3,49.3,41.3,57.3
		c3,0.6,4.1-1.3,4.1-2.9c0-1.4-0.1-6.2-0.1-11.2c-16.8,3.7-20.3-7.1-20.3-7.1c-2.7-7-6.7-8.8-6.7-8.8c-5.5-3.7,0.4-3.7,0.4-3.7
		c6.1,0.4,9.3,6.2,9.3,6.2c5.4,9.2,14.1,6.6,17.6,5c0.5-3.9,2.1-6.6,3.8-8.1C40.2,91,26.1,85.8,26.1,62.7c0-6.6,2.4-12,6.2-16.2
		c-0.6-1.5-2.7-7.7,0.6-16c0,0,5.1-1.6,16.6,6.2c4.8-1.3,10-2,15.1-2c5.1,0,10.3,0.7,15.1,2c11.5-7.8,16.6-6.2,16.6-6.2
		c3.3,8.3,1.2,14.5,0.6,16c3.9,4.2,6.2,9.6,6.2,16.2c0,23.2-14.1,28.3-27.6,29.8c2.2,1.9,4.1,5.5,4.1,11.2c0,8.1-0.1,14.6-0.1,16.6
		c0,1.6,1.1,3.5,4.1,2.9c24-8,41.3-30.6,41.3-57.3C125,32.5,98,5.4,64.6,5.4z"/>
	<path fill="#191717" d="M27.1,92.1c-0.1,0.3-0.6,0.4-1,0.2c-0.4-0.2-0.7-0.6-0.5-0.9c0.1-0.3,0.6-0.4,1-0.2
		C27,91.4,27.2,91.8,27.1,92.1L27.1,92.1z M26.3,91.6"/>
	<path fill="#191717" d="M29.5,94.9c-0.3,0.3-0.9,0.1-1.2-0.3c-0.4-0.4-0.5-1-0.2-1.3c0.3-0.3,0.8-0.1,1.2,0.3
		C29.8,94,29.8,94.6,29.5,94.9L29.5,94.9z M29,94.2"/>
	<path fill="#191717" d="M31.9,98.3c-0.4,0.3-1,0-1.3-0.5c-0.4-0.5-0.4-1.2,0-1.4c0.4-0.3,1,0,1.3,0.5
		C32.3,97.4,32.3,98.1,31.9,98.3L31.9,98.3z M31.9,98.3"/>
	<path fill="#191717" d="M35.2,101.7c-0.3,0.4-1,0.3-1.6-0.2c-0.5-0.5-0.7-1.2-0.3-1.5c0.3-0.4,1-0.3,1.6,0.2
		C35.4,100.6,35.5,101.3,35.2,101.7L35.2,101.7z M35.2,101.7"/>
	<path fill="#191717" d="M39.7,103.7c-0.1,0.5-0.8,0.7-1.5,0.5c-0.7-0.2-1.1-0.8-1-1.2c0.1-0.5,0.8-0.7,1.5-0.5
		C39.4,102.6,39.8,103.2,39.7,103.7L39.7,103.7z M39.7,103.7"/>
	<path fill="#191717" d="M44.6,104c0,0.5-0.6,0.9-1.3,0.9c-0.7,0-1.3-0.4-1.3-0.9c0-0.5,0.6-0.9,1.3-0.9
		C44,103.1,44.6,103.5,44.6,104L44.6,104z M44.6,104"/>
	<path fill="#191717" d="M49.2,103.2c0.1,0.5-0.4,1-1.1,1.1c-0.7,0.1-1.3-0.2-1.4-0.7c-0.1-0.5,0.4-1,1.1-1.1
		C48.5,102.4,49.1,102.7,49.2,103.2L49.2,103.2z M49.2,103.2"/>
</g>
<g>
	
		<rect x="12" y="23" transform="matrix(0.9763 -0.2164 0.2164 0.9763 -11.1533 15.2357)" fill="none" stroke="#858C9E" stroke-width="4" stroke-miterlimit="10" width="104" height="71.1"/>
	<path fill="#ED1F24" d="M18.2,61.5l26.9-6c0,0,0,0,0,0l4-0.9c1.1-0.2,1.7-1.9,1.3-3.7c-0.4-1.8-1.6-3.1-2.7-2.8l-30.9,6.9
		c-1.1,0.2-1.7,1.9-1.3,3.7C15.9,60.5,17.1,61.7,18.2,61.5z"/>
	<path fill="#3951A3" d="M16.6,43.4l83.3-18.5c2.4-0.5,4-2.4,3.6-4.3c-0.4-1.8-2.7-2.9-5-2.3L15.1,36.8c-2.4,0.5-4,2.4-3.6,4.3
		C12,42.9,14.2,43.9,16.6,43.4z"/>
	<path fill="#6ABD45" d="M72.5,61L21.3,72.3c-1.5,0.3-2.3,2.1-1.9,3.9c0.4,1.8,1.9,3,3.4,2.7L74,67.6c1.5-0.3,2.3-2.1,1.9-3.9
		C75.5,61.9,74,60.6,72.5,61z"/>
	<path fill="#3A53A4" d="M96.8,74L27.7,89.3c-2.9,0.6-4.9,2.6-4.4,4.4c0.4,1.8,3,2.8,5.9,2.1l69.1-15.3c2.9-0.6,4.9-2.6,4.4-4.4
		C102.3,74.4,99.6,73.4,96.8,74z"/>
	<path fill="#ED1D24" d="M53.2,53.7l26.9-6c0,0,0,0,0,0l4-0.9c1.1-0.2,1.7-1.9,1.3-3.7c-0.4-1.8-1.6-3.1-2.7-2.8l-30.9,6.9
		c-1.1,0.2-1.7,1.9-1.3,3.7C50.8,52.7,52.1,54,53.2,53.7z"/>
</g>
</svg>
